<svg width="30" height="22" viewBox="0 0 30 22" fill="none" xmlns="http://www.w3.org/2000/svg">
<path d="M0 12.4333L0.666667 9.76667H8L7.33333 12.4333H0ZM8.66667 21.3333C7.55556 21.3333 6.61111 20.9444 5.83333 20.1667C5.05556 19.3889 4.66667 18.4444 4.66667 17.3333H1.33333L2 14.4333H8.9L10.1 9.56667H12.9L14.5667 2.9H5.33333L5.53333 2.1C5.66667 1.47778 5.97222 0.972222 6.45 0.583333C6.92778 0.194444 7.48889 0 8.13333 0H23.3333L22.1 5.33333H26L30 10.6667L28.6667 17.3333H26C26 18.4444 25.6111 19.3889 24.8333 20.1667C24.0556 20.9444 23.1111 21.3333 22 21.3333C20.8889 21.3333 19.9444 20.9444 19.1667 20.1667C18.3889 19.3889 18 18.4444 18 17.3333H12.6667C12.6667 18.4444 12.2778 19.3889 11.5 20.1667C10.7222 20.9444 9.77778 21.3333 8.66667 21.3333ZM2.66667 7.56667L3.33333 4.9H12L11.3333 7.56667H2.66667ZM8.66667 18.6667C9.04445 18.6667 9.36111 18.5389 9.61667 18.2833C9.87222 18.0278 10 17.7111 10 17.3333C10 16.9556 9.87222 16.6389 9.61667 16.3833C9.36111 16.1278 9.04445 16 8.66667 16C8.28889 16 7.97222 16.1278 7.71667 16.3833C7.46111 16.6389 7.33333 16.9556 7.33333 17.3333C7.33333 17.7111 7.46111 18.0278 7.71667 18.2833C7.97222 18.5389 8.28889 18.6667 8.66667 18.6667ZM22 18.6667C22.3778 18.6667 22.6944 18.5389 22.95 18.2833C23.2056 18.0278 23.3333 17.7111 23.3333 17.3333C23.3333 16.9556 23.2056 16.6389 22.95 16.3833C22.6944 16.1278 22.3778 16 22 16C21.6222 16 21.3056 16.1278 21.05 16.3833C20.7944 16.6389 20.6667 16.9556 20.6667 17.3333C20.6667 17.7111 20.7944 18.0278 21.05 18.2833C21.3056 18.5389 21.6222 18.6667 22 18.6667ZM20.5667 12H27L27.1333 11.3L24.6667 8H21.5L20.5667 12Z" fill="#2187FF"/>
</svg>
