<svg width="148" height="56" viewBox="0 0 148 56" fill="none" xmlns="http://www.w3.org/2000/svg">
<g clip-path="url(#clip0_549_241)">
<rect x="92" y="20" width="52" height="20" rx="10" fill="white"/>
<path d="M103.172 35.098C102.528 35.098 101.949 34.986 101.436 34.762C100.932 34.5287 100.535 34.2113 100.246 33.81C99.9567 33.3993 99.8073 32.928 99.798 32.396H101.156C101.203 32.8533 101.389 33.2407 101.716 33.558C102.052 33.866 102.537 34.02 103.172 34.02C103.779 34.02 104.255 33.8707 104.6 33.572C104.955 33.264 105.132 32.872 105.132 32.396C105.132 32.0227 105.029 31.7193 104.824 31.486C104.619 31.2527 104.362 31.0753 104.054 30.954C103.746 30.8327 103.331 30.702 102.808 30.562C102.164 30.394 101.646 30.226 101.254 30.058C100.871 29.89 100.54 29.6287 100.26 29.274C99.9893 28.91 99.854 28.4247 99.854 27.818C99.854 27.286 99.9893 26.8147 100.26 26.404C100.531 25.9933 100.909 25.676 101.394 25.452C101.889 25.228 102.453 25.116 103.088 25.116C104.003 25.116 104.749 25.3447 105.328 25.802C105.916 26.2593 106.247 26.866 106.322 27.622H104.922C104.875 27.2487 104.679 26.922 104.334 26.642C103.989 26.3527 103.531 26.208 102.962 26.208C102.43 26.208 101.996 26.348 101.66 26.628C101.324 26.8987 101.156 27.2813 101.156 27.776C101.156 28.1307 101.254 28.42 101.45 28.644C101.655 28.868 101.903 29.0407 102.192 29.162C102.491 29.274 102.906 29.4047 103.438 29.554C104.082 29.7313 104.6 29.9087 104.992 30.086C105.384 30.254 105.72 30.52 106 30.884C106.28 31.2387 106.42 31.724 106.42 32.34C106.42 32.816 106.294 33.264 106.042 33.684C105.79 34.104 105.417 34.4447 104.922 34.706C104.427 34.9673 103.844 35.098 103.172 35.098ZM109.849 28.378V32.9C109.849 33.2733 109.928 33.5393 110.087 33.698C110.245 33.8473 110.521 33.922 110.913 33.922H111.851V35H110.703C109.993 35 109.461 34.8367 109.107 34.51C108.752 34.1833 108.575 33.6467 108.575 32.9V28.378H107.581V27.328H108.575V25.396H109.849V27.328H111.851V28.378H109.849ZM116.74 35.126C116.022 35.126 115.368 34.9627 114.78 34.636C114.202 34.3093 113.744 33.8473 113.408 33.25C113.082 32.6433 112.918 31.9433 112.918 31.15C112.918 30.366 113.086 29.6753 113.422 29.078C113.768 28.4713 114.234 28.0093 114.822 27.692C115.41 27.3653 116.068 27.202 116.796 27.202C117.524 27.202 118.182 27.3653 118.77 27.692C119.358 28.0093 119.82 28.4667 120.156 29.064C120.502 29.6613 120.674 30.3567 120.674 31.15C120.674 31.9433 120.497 32.6433 120.142 33.25C119.797 33.8473 119.326 34.3093 118.728 34.636C118.131 34.9627 117.468 35.126 116.74 35.126ZM116.74 34.006C117.198 34.006 117.627 33.8987 118.028 33.684C118.43 33.4693 118.752 33.1473 118.994 32.718C119.246 32.2887 119.372 31.766 119.372 31.15C119.372 30.534 119.251 30.0113 119.008 29.582C118.766 29.1527 118.448 28.8353 118.056 28.63C117.664 28.4153 117.24 28.308 116.782 28.308C116.316 28.308 115.886 28.4153 115.494 28.63C115.112 28.8353 114.804 29.1527 114.57 29.582C114.337 30.0113 114.22 30.534 114.22 31.15C114.22 31.7753 114.332 32.3027 114.556 32.732C114.79 33.1613 115.098 33.4833 115.48 33.698C115.863 33.9033 116.283 34.006 116.74 34.006ZM123.623 28.574C123.847 28.1353 124.165 27.7947 124.575 27.552C124.995 27.3093 125.504 27.188 126.101 27.188V28.504H125.765C124.337 28.504 123.623 29.2787 123.623 30.828V35H122.349V27.328H123.623V28.574ZM134.572 30.87C134.572 31.1127 134.558 31.3693 134.53 31.64H128.398C128.445 32.396 128.701 32.9887 129.168 33.418C129.644 33.838 130.218 34.048 130.89 34.048C131.441 34.048 131.898 33.922 132.262 33.67C132.635 33.4087 132.897 33.0633 133.046 32.634H134.418C134.213 33.3713 133.802 33.9733 133.186 34.44C132.57 34.8973 131.805 35.126 130.89 35.126C130.162 35.126 129.509 34.9627 128.93 34.636C128.361 34.3093 127.913 33.8473 127.586 33.25C127.259 32.6433 127.096 31.9433 127.096 31.15C127.096 30.3567 127.255 29.6613 127.572 29.064C127.889 28.4667 128.333 28.0093 128.902 27.692C129.481 27.3653 130.143 27.202 130.89 27.202C131.618 27.202 132.262 27.3607 132.822 27.678C133.382 27.9953 133.811 28.434 134.11 28.994C134.418 29.5447 134.572 30.17 134.572 30.87ZM133.256 30.604C133.256 30.1187 133.149 29.7033 132.934 29.358C132.719 29.0033 132.425 28.7373 132.052 28.56C131.688 28.3733 131.282 28.28 130.834 28.28C130.19 28.28 129.639 28.4853 129.182 28.896C128.734 29.3067 128.477 29.876 128.412 30.604H133.256Z" fill="#2187FF"/>
</g>
<path d="M23.352 43.224L18.904 38.776C17.816 39.0747 16.7067 39.224 15.576 39.224C13.5067 39.224 11.6187 38.744 9.912 37.784C8.20533 36.8027 6.85067 35.448 5.848 33.72C4.86667 31.9707 4.376 30.008 4.376 27.832C4.376 25.656 4.86667 23.704 5.848 21.976C6.85067 20.2267 8.20533 18.872 9.912 17.912C11.6187 16.9307 13.5067 16.44 15.576 16.44C17.6667 16.44 19.5653 16.9307 21.272 17.912C22.9787 18.872 24.3227 20.216 25.304 21.944C26.2853 23.672 26.776 25.6347 26.776 27.832C26.776 29.9653 26.3067 31.8853 25.368 33.592C24.4293 35.2987 23.1387 36.6427 21.496 37.624L27.128 43.224H23.352ZM7.352 27.832C7.352 29.6027 7.704 31.16 8.408 32.504C9.13333 33.848 10.1147 34.8827 11.352 35.608C12.6107 36.3333 14.0187 36.696 15.576 36.696C17.1333 36.696 18.5307 36.3333 19.768 35.608C21.0267 34.8827 22.008 33.848 22.712 32.504C23.4373 31.16 23.8 29.6027 23.8 27.832C23.8 26.04 23.4373 24.4827 22.712 23.16C22.008 21.816 21.0373 20.7813 19.8 20.056C18.5627 19.3307 17.1547 18.968 15.576 18.968C13.9973 18.968 12.5893 19.3307 11.352 20.056C10.1147 20.7813 9.13333 21.816 8.408 23.16C7.704 24.4827 7.352 26.04 7.352 27.832ZM46.2348 21.464V39H43.3228V36.408C42.7681 37.304 41.9894 38.008 40.9868 38.52C40.0054 39.0107 38.9174 39.256 37.7228 39.256C36.3574 39.256 35.1308 38.9787 34.0428 38.424C32.9548 37.848 32.0908 36.9947 31.4508 35.864C30.8321 34.7333 30.5228 33.3573 30.5228 31.736V21.464H33.4028V31.352C33.4028 33.08 33.8401 34.4133 34.7148 35.352C35.5894 36.2693 36.7841 36.728 38.2988 36.728C39.8561 36.728 41.0828 36.248 41.9788 35.288C42.8748 34.328 43.3228 32.9307 43.3228 31.096V21.464H46.2348ZM52.6555 18.616C52.1008 18.616 51.6315 18.424 51.2475 18.04C50.8635 17.656 50.6715 17.1867 50.6715 16.632C50.6715 16.0773 50.8635 15.608 51.2475 15.224C51.6315 14.84 52.1008 14.648 52.6555 14.648C53.1888 14.648 53.6368 14.84 53.9995 15.224C54.3835 15.608 54.5755 16.0773 54.5755 16.632C54.5755 17.1867 54.3835 17.656 53.9995 18.04C53.6368 18.424 53.1888 18.616 52.6555 18.616ZM54.0635 21.464V39H51.1515V21.464H54.0635ZM57.9385 30.2C57.9385 28.3867 58.3012 26.808 59.0265 25.464C59.7518 24.0987 60.7545 23.0427 62.0345 22.296C63.3358 21.5493 64.8185 21.176 66.4825 21.176C68.6372 21.176 70.4078 21.6987 71.7945 22.744C73.2025 23.7893 74.1305 25.24 74.5785 27.096H71.4425C71.1438 26.0293 70.5572 25.1867 69.6825 24.568C68.8292 23.9493 67.7625 23.64 66.4825 23.64C64.8185 23.64 63.4745 24.216 62.4505 25.368C61.4265 26.4987 60.9145 28.1093 60.9145 30.2C60.9145 32.312 61.4265 33.944 62.4505 35.096C63.4745 36.248 64.8185 36.824 66.4825 36.824C67.7625 36.824 68.8292 36.5253 69.6825 35.928C70.5358 35.3307 71.1225 34.4773 71.4425 33.368H74.5785C74.1092 35.16 73.1705 36.6 71.7625 37.688C70.3545 38.7547 68.5945 39.288 66.4825 39.288C64.8185 39.288 63.3358 38.9147 62.0345 38.168C60.7545 37.4213 59.7518 36.3653 59.0265 35C58.3012 33.6347 57.9385 32.0347 57.9385 30.2ZM88.256 39L81.376 31.256V39H78.464V15.32H81.376V29.24L88.128 21.464H92.192L83.936 30.2L92.224 39H88.256Z" fill="white"/>
<defs>
<clipPath id="clip0_549_241">
<rect x="92" y="20" width="52" height="20" rx="10" fill="white"/>
</clipPath>
</defs>
</svg>
