<svg width="137" height="48" viewBox="0 0 137 48" fill="none" xmlns="http://www.w3.org/2000/svg">
<path d="M20.352 39.224L15.904 34.776C14.816 35.0747 13.7067 35.224 12.576 35.224C10.5067 35.224 8.61867 34.744 6.912 33.784C5.20533 32.8027 3.85067 31.448 2.848 29.72C1.86667 27.9707 1.376 26.008 1.376 23.832C1.376 21.656 1.86667 19.704 2.848 17.976C3.85067 16.2267 5.20533 14.872 6.912 13.912C8.61867 12.9307 10.5067 12.44 12.576 12.44C14.6667 12.44 16.5653 12.9307 18.272 13.912C19.9787 14.872 21.3227 16.216 22.304 17.944C23.2853 19.672 23.776 21.6347 23.776 23.832C23.776 25.9653 23.3067 27.8853 22.368 29.592C21.4293 31.2987 20.1387 32.6427 18.496 33.624L24.128 39.224H20.352ZM4.352 23.832C4.352 25.6027 4.704 27.16 5.408 28.504C6.13333 29.848 7.11467 30.8827 8.352 31.608C9.61067 32.3333 11.0187 32.696 12.576 32.696C14.1333 32.696 15.5307 32.3333 16.768 31.608C18.0267 30.8827 19.008 29.848 19.712 28.504C20.4373 27.16 20.8 25.6027 20.8 23.832C20.8 22.04 20.4373 20.4827 19.712 19.16C19.008 17.816 18.0373 16.7813 16.8 16.056C15.5627 15.3307 14.1547 14.968 12.576 14.968C10.9973 14.968 9.58933 15.3307 8.352 16.056C7.11467 16.7813 6.13333 17.816 5.408 19.16C4.704 20.4827 4.352 22.04 4.352 23.832ZM43.2348 17.464V35H40.3228V32.408C39.7681 33.304 38.9894 34.008 37.9868 34.52C37.0054 35.0107 35.9174 35.256 34.7228 35.256C33.3574 35.256 32.1308 34.9787 31.0428 34.424C29.9548 33.848 29.0908 32.9947 28.4508 31.864C27.8321 30.7333 27.5228 29.3573 27.5228 27.736V17.464H30.4028V27.352C30.4028 29.08 30.8401 30.4133 31.7148 31.352C32.5894 32.2693 33.7841 32.728 35.2988 32.728C36.8561 32.728 38.0828 32.248 38.9788 31.288C39.8748 30.328 40.3228 28.9307 40.3228 27.096V17.464H43.2348ZM49.6555 14.616C49.1008 14.616 48.6315 14.424 48.2475 14.04C47.8635 13.656 47.6715 13.1867 47.6715 12.632C47.6715 12.0773 47.8635 11.608 48.2475 11.224C48.6315 10.84 49.1008 10.648 49.6555 10.648C50.1888 10.648 50.6368 10.84 50.9995 11.224C51.3835 11.608 51.5755 12.0773 51.5755 12.632C51.5755 13.1867 51.3835 13.656 50.9995 14.04C50.6368 14.424 50.1888 14.616 49.6555 14.616ZM51.0635 17.464V35H48.1515V17.464H51.0635ZM54.9385 26.2C54.9385 24.3867 55.3012 22.808 56.0265 21.464C56.7518 20.0987 57.7545 19.0427 59.0345 18.296C60.3358 17.5493 61.8185 17.176 63.4825 17.176C65.6372 17.176 67.4078 17.6987 68.7945 18.744C70.2025 19.7893 71.1305 21.24 71.5785 23.096H68.4425C68.1438 22.0293 67.5572 21.1867 66.6825 20.568C65.8292 19.9493 64.7625 19.64 63.4825 19.64C61.8185 19.64 60.4745 20.216 59.4505 21.368C58.4265 22.4987 57.9145 24.1093 57.9145 26.2C57.9145 28.312 58.4265 29.944 59.4505 31.096C60.4745 32.248 61.8185 32.824 63.4825 32.824C64.7625 32.824 65.8292 32.5253 66.6825 31.928C67.5358 31.3307 68.1225 30.4773 68.4425 29.368H71.5785C71.1092 31.16 70.1705 32.6 68.7625 33.688C67.3545 34.7547 65.5945 35.288 63.4825 35.288C61.8185 35.288 60.3358 34.9147 59.0345 34.168C57.7545 33.4213 56.7518 32.3653 56.0265 31C55.3012 29.6347 54.9385 28.0347 54.9385 26.2ZM85.256 35L78.376 27.256V35H75.464V11.32H78.376V25.24L85.128 17.464H89.192L80.936 26.2L89.224 35H85.256Z" fill="black"/>
<rect x="90" y="17" width="47" height="19" rx="9.5" fill="#2187FF"/>
<path d="M99.172 31.098C98.528 31.098 97.9493 30.986 97.436 30.762C96.932 30.5287 96.5353 30.2113 96.246 29.81C95.9567 29.3993 95.8073 28.928 95.798 28.396H97.156C97.2027 28.8533 97.3893 29.2407 97.716 29.558C98.052 29.866 98.5373 30.02 99.172 30.02C99.7787 30.02 100.255 29.8707 100.6 29.572C100.955 29.264 101.132 28.872 101.132 28.396C101.132 28.0227 101.029 27.7193 100.824 27.486C100.619 27.2527 100.362 27.0753 100.054 26.954C99.746 26.8327 99.3307 26.702 98.808 26.562C98.164 26.394 97.646 26.226 97.254 26.058C96.8713 25.89 96.54 25.6287 96.26 25.274C95.9893 24.91 95.854 24.4247 95.854 23.818C95.854 23.286 95.9893 22.8147 96.26 22.404C96.5307 21.9933 96.9087 21.676 97.394 21.452C97.8887 21.228 98.4533 21.116 99.088 21.116C100.003 21.116 100.749 21.3447 101.328 21.802C101.916 22.2593 102.247 22.866 102.322 23.622H100.922C100.875 23.2487 100.679 22.922 100.334 22.642C99.9887 22.3527 99.5313 22.208 98.962 22.208C98.43 22.208 97.996 22.348 97.66 22.628C97.324 22.8987 97.156 23.2813 97.156 23.776C97.156 24.1307 97.254 24.42 97.45 24.644C97.6553 24.868 97.9027 25.0407 98.192 25.162C98.4907 25.274 98.906 25.4047 99.438 25.554C100.082 25.7313 100.6 25.9087 100.992 26.086C101.384 26.254 101.72 26.52 102 26.884C102.28 27.2387 102.42 27.724 102.42 28.34C102.42 28.816 102.294 29.264 102.042 29.684C101.79 30.104 101.417 30.4447 100.922 30.706C100.427 30.9673 99.844 31.098 99.172 31.098ZM105.849 24.378V28.9C105.849 29.2733 105.928 29.5393 106.087 29.698C106.245 29.8473 106.521 29.922 106.913 29.922H107.851V31H106.703C105.993 31 105.461 30.8367 105.107 30.51C104.752 30.1833 104.575 29.6467 104.575 28.9V24.378H103.581V23.328H104.575V21.396H105.849V23.328H107.851V24.378H105.849ZM112.74 31.126C112.022 31.126 111.368 30.9627 110.78 30.636C110.202 30.3093 109.744 29.8473 109.408 29.25C109.082 28.6433 108.918 27.9433 108.918 27.15C108.918 26.366 109.086 25.6753 109.422 25.078C109.768 24.4713 110.234 24.0093 110.822 23.692C111.41 23.3653 112.068 23.202 112.796 23.202C113.524 23.202 114.182 23.3653 114.77 23.692C115.358 24.0093 115.82 24.4667 116.156 25.064C116.502 25.6613 116.674 26.3567 116.674 27.15C116.674 27.9433 116.497 28.6433 116.142 29.25C115.797 29.8473 115.326 30.3093 114.728 30.636C114.131 30.9627 113.468 31.126 112.74 31.126ZM112.74 30.006C113.198 30.006 113.627 29.8987 114.028 29.684C114.43 29.4693 114.752 29.1473 114.994 28.718C115.246 28.2887 115.372 27.766 115.372 27.15C115.372 26.534 115.251 26.0113 115.008 25.582C114.766 25.1527 114.448 24.8353 114.056 24.63C113.664 24.4153 113.24 24.308 112.782 24.308C112.316 24.308 111.886 24.4153 111.494 24.63C111.112 24.8353 110.804 25.1527 110.57 25.582C110.337 26.0113 110.22 26.534 110.22 27.15C110.22 27.7753 110.332 28.3027 110.556 28.732C110.79 29.1613 111.098 29.4833 111.48 29.698C111.863 29.9033 112.283 30.006 112.74 30.006ZM119.623 24.574C119.847 24.1353 120.165 23.7947 120.575 23.552C120.995 23.3093 121.504 23.188 122.101 23.188V24.504H121.765C120.337 24.504 119.623 25.2787 119.623 26.828V31H118.349V23.328H119.623V24.574ZM130.572 26.87C130.572 27.1127 130.558 27.3693 130.53 27.64H124.398C124.445 28.396 124.701 28.9887 125.168 29.418C125.644 29.838 126.218 30.048 126.89 30.048C127.441 30.048 127.898 29.922 128.262 29.67C128.635 29.4087 128.897 29.0633 129.046 28.634H130.418C130.213 29.3713 129.802 29.9733 129.186 30.44C128.57 30.8973 127.805 31.126 126.89 31.126C126.162 31.126 125.509 30.9627 124.93 30.636C124.361 30.3093 123.913 29.8473 123.586 29.25C123.259 28.6433 123.096 27.9433 123.096 27.15C123.096 26.3567 123.255 25.6613 123.572 25.064C123.889 24.4667 124.333 24.0093 124.902 23.692C125.481 23.3653 126.143 23.202 126.89 23.202C127.618 23.202 128.262 23.3607 128.822 23.678C129.382 23.9953 129.811 24.434 130.11 24.994C130.418 25.5447 130.572 26.17 130.572 26.87ZM129.256 26.604C129.256 26.1187 129.149 25.7033 128.934 25.358C128.719 25.0033 128.425 24.7373 128.052 24.56C127.688 24.3733 127.282 24.28 126.834 24.28C126.19 24.28 125.639 24.4853 125.182 24.896C124.734 25.3067 124.477 25.876 124.412 26.604H129.256Z" fill="white"/>
</svg>
