<svg width="25" height="28" viewBox="0 0 25 28" fill="none" xmlns="http://www.w3.org/2000/svg">
<path d="M17.6666 27.3332C15.8221 27.3332 14.2499 26.6832 12.9499 25.3832C11.6499 24.0832 10.9999 22.5109 10.9999 20.6665C10.9999 18.8221 11.6499 17.2498 12.9499 15.9498C14.2499 14.6498 15.8221 13.9998 17.6666 13.9998C19.511 13.9998 21.0833 14.6498 22.3833 15.9498C23.6833 17.2498 24.3333 18.8221 24.3333 20.6665C24.3333 22.5109 23.6833 24.0832 22.3833 25.3832C21.0833 26.6832 19.511 27.3332 17.6666 27.3332ZM10.9999 27.3332C7.91103 26.5554 5.36103 24.7832 3.34992 22.0165C1.33881 19.2498 0.333252 16.1776 0.333252 12.7998V4.6665L10.9999 0.666504L21.6666 4.6665V12.2332C21.0888 11.9443 20.4388 11.7221 19.7166 11.5665C18.9944 11.4109 18.311 11.3332 17.6666 11.3332C15.0888 11.3332 12.8888 12.2443 11.0666 14.0665C9.24436 15.8887 8.33325 18.0887 8.33325 20.6665C8.33325 22.0443 8.59436 23.2887 9.11659 24.3998C9.63881 25.5109 10.2999 26.4776 11.0999 27.2998C11.0777 27.2998 11.061 27.3054 11.0499 27.3165C11.0388 27.3276 11.0221 27.3332 10.9999 27.3332ZM17.6666 20.6665C18.2221 20.6665 18.6944 20.4721 19.0833 20.0832C19.4721 19.6943 19.6666 19.2221 19.6666 18.6665C19.6666 18.1109 19.4721 17.6387 19.0833 17.2498C18.6944 16.8609 18.2221 16.6665 17.6666 16.6665C17.111 16.6665 16.6388 16.8609 16.2499 17.2498C15.861 17.6387 15.6666 18.1109 15.6666 18.6665C15.6666 19.2221 15.861 19.6943 16.2499 20.0832C16.6388 20.4721 17.111 20.6665 17.6666 20.6665ZM17.6666 24.6665C18.3555 24.6665 18.9888 24.5054 19.5666 24.1832C20.1444 23.8609 20.611 23.4332 20.9666 22.8998C20.4777 22.6109 19.9555 22.3887 19.3999 22.2332C18.8444 22.0776 18.2666 21.9998 17.6666 21.9998C17.0666 21.9998 16.4888 22.0776 15.9333 22.2332C15.3777 22.3887 14.8555 22.6109 14.3666 22.8998C14.7221 23.4332 15.1888 23.8609 15.7666 24.1832C16.3444 24.5054 16.9777 24.6665 17.6666 24.6665Z" fill="#2187FF"/>
</svg>
