<svg width="24" height="17" viewBox="0 0 24 17" fill="none" xmlns="http://www.w3.org/2000/svg">
<path d="M23.4985 2.63136C23.2225 1.59556 22.4093 0.779915 21.3766 0.503096C19.505 9.53674e-06 12 9.53674e-06 12 9.53674e-06C12 9.53674e-06 4.495 9.53674e-06 2.62335 0.503096C1.59076 0.779915 0.777485 1.59556 0.501509 2.63136C0 4.50866 0 8.42554 0 8.42554C0 8.42554 0 12.3424 0.501509 14.2198C0.777485 15.2555 1.59076 16.0712 2.62335 16.3481C4.495 16.8511 12 16.8511 12 16.8511C12 16.8511 19.505 16.8511 21.3766 16.3481C22.4093 16.0712 23.2225 15.2555 23.4985 14.2198C24 12.3424 24 8.42554 24 8.42554C24 8.42554 24 4.50866 23.4985 2.63136Z" fill="white"/>
<path d="M9.54541 11.9819L15.8181 8.42588L9.54541 4.86949V11.9819Z" fill="black"/>
</svg>
